<svg id="Layer_1" data-name="Layer 1" xmlns="http://www.w3.org/2000/svg" viewBox="0 0 455.45 525.9"><defs><style>.cls-1{fill:#1c8ccb;}.cls-2{fill:#1179b7;}.cls-3{fill:#0f6395;}.cls-4{fill:#0f4972;}.cls-5{fill:none;}.cls-6{fill:#139eda;}.cls-7{fill:#9cd7f0;}.cls-8{fill:#26b3e4;}.cls-9{fill:#66c7ec;}.cls-10{fill:#2caae1;}</style></defs><title>logo</title><polygon class="cls-1" points="0 131.47 0 262.95 86.4 181.36 0 131.47"/><polygon class="cls-2" points="86.4 181.36 0 262.95 86.4 262.95 86.4 181.36"/><polygon class="cls-3" points="0 262.95 86.4 344.54 86.4 262.95 0 262.95"/><polygon class="cls-4" points="0 394.43 86.4 344.54 0 262.95 0 394.43"/><path class="cls-5" d="M1056.14,494.22Z" transform="translate(-942.27 -428.48)"/><polygon class="cls-6" points="0 131.47 86.4 181.36 113.86 65.74 0 131.47"/><polygon class="cls-7" points="113.86 65.74 227.73 99.77 227.73 0 113.86 65.74"/><polygon class="cls-5" points="344.08 67.17 344.08 67.17 344.08 67.18 344.08 67.17"/><polygon class="cls-4" points="227.73 0 227.73 99.77 344.08 67.17 227.73 0"/><polygon class="cls-1" points="344.08 67.18 369.05 181.36 455.45 131.47 344.08 67.18"/><polygon class="cls-6" points="369.05 181.36 455.45 262.95 455.45 131.47 369.05 181.36"/><polygon class="cls-7" points="455.45 394.43 455.45 262.95 369.05 344.54 455.45 394.43"/><polygon class="cls-8" points="86.4 181.36 157.06 140.56 113.86 65.74 86.4 181.36"/><polygon class="cls-9" points="113.86 65.74 157.06 140.56 227.73 99.77 113.86 65.74"/><path class="cls-5" d="M1286.35,887.21Z" transform="translate(-942.27 -428.48)"/><polygon class="cls-3" points="227.73 525.9 344.08 458.73 227.73 426.13 227.73 525.9"/><polygon class="cls-10" points="455.45 394.43 369.05 344.54 344.08 458.73 455.45 394.43"/><polygon class="cls-1" points="298.39 385.33 344.08 458.73 369.05 344.54 298.39 385.33"/><polygon class="cls-4" points="227.73 426.13 344.08 458.73 344.08 458.73 298.39 385.33 227.73 426.13"/><path class="cls-5" d="M1056.14,888.65Z" transform="translate(-942.27 -428.48)"/><polygon class="cls-2" points="227.73 426.13 113.86 460.17 227.73 525.9 227.73 426.13"/><polygon class="cls-9" points="0 394.43 113.86 460.17 86.4 344.54 0 394.43"/><polygon class="cls-6" points="86.4 344.54 113.86 460.17 157.06 385.33 86.4 344.54"/><polygon class="cls-1" points="157.06 385.33 113.86 460.17 227.73 426.13 157.06 385.33"/><polygon class="cls-8" points="369.05 181.36 369.05 262.95 455.45 262.95 369.05 181.36"/><polygon class="cls-9" points="455.45 262.95 369.05 262.95 369.05 344.54 455.45 262.95"/><polygon class="cls-3" points="344.08 67.17 227.73 99.77 298.39 140.56 344.08 67.18 344.08 67.17"/><polygon class="cls-2" points="344.08 67.18 298.39 140.56 369.05 181.36 344.08 67.18"/></svg>